<?xml version="1.0" encoding="UTF-8" standalone="no"?>
<!-- Created with Inkscape (http://www.inkscape.org/) -->

<svg
   xmlns:dc="http://purl.org/dc/elements/1.1/"
   xmlns:cc="http://creativecommons.org/ns#"
   xmlns:rdf="http://www.w3.org/1999/02/22-rdf-syntax-ns#"
   xmlns:svg="http://www.w3.org/2000/svg"
   xmlns="http://www.w3.org/2000/svg"
   xmlns:sodipodi="http://sodipodi.sourceforge.net/DTD/sodipodi-0.dtd"
   xmlns:inkscape="http://www.inkscape.org/namespaces/inkscape"
   version="1.1"
   id="svg4535"
   width="240"
   height="240"
   viewBox="0 0 240 240"
   sodipodi:docname="kramin_carmin.svg"
   inkscape:export-filename="C:\Users\achague.DESKTOP-5OQDO79\Pictures\Mascottes et logos\kramin\kramin_nobubble.png"
   inkscape:export-xdpi="200"
   inkscape:export-ydpi="200"
   inkscape:version="0.92.2 (5c3e80d, 2017-08-06)">
  <metadata
     id="metadata4541">
    <rdf:RDF>
      <cc:Work
         rdf:about="">
        <dc:format>image/svg+xml</dc:format>
        <dc:type
           rdf:resource="http://purl.org/dc/dcmitype/StillImage" />
        <dc:title />
      </cc:Work>
    </rdf:RDF>
  </metadata>
  <defs
     id="defs4539">
    <clipPath
       clipPathUnits="userSpaceOnUse"
       id="clipPath974">
      <circle
         style="opacity:1;fill:#abc837;fill-opacity:1;fill-rule:nonzero;stroke:#782121;stroke-width:4;stroke-linecap:butt;stroke-linejoin:miter;stroke-miterlimit:4;stroke-dasharray:none;stroke-opacity:1"
         id="circle976"
         cx="651.54694"
         cy="53.154251"
         r="130.76904" />
    </clipPath>
    <filter
       inkscape:collect="always"
       style="color-interpolation-filters:sRGB"
       id="filter902"
       x="-0.023978005"
       width="1.047956"
       y="-0.29938706"
       height="1.5987741">
      <feGaussianBlur
         inkscape:collect="always"
         stdDeviation="2.1211711"
         id="feGaussianBlur904" />
    </filter>
    <filter
       inkscape:collect="always"
       style="color-interpolation-filters:sRGB"
       id="filter1637"
       x="-0.10103681"
       width="1.2020736"
       y="-0.071879663"
       height="1.1437593">
      <feGaussianBlur
         inkscape:collect="always"
         stdDeviation="2.4495918"
         id="feGaussianBlur1639" />
    </filter>
  </defs>
  <sodipodi:namedview
     pagecolor="#ffffff"
     bordercolor="#666666"
     borderopacity="1"
     objecttolerance="10"
     gridtolerance="10"
     guidetolerance="10"
     inkscape:pageopacity="0"
     inkscape:pageshadow="2"
     inkscape:window-width="1920"
     inkscape:window-height="986"
     id="namedview4537"
     showgrid="false"
     inkscape:zoom="2.7528935"
     inkscape:cx="70.222872"
     inkscape:cy="126.23632"
     inkscape:window-x="-11"
     inkscape:window-y="-11"
     inkscape:window-maximized="1"
     inkscape:current-layer="svg4535"
     showguides="true"
     inkscape:guide-bbox="true">
    <sodipodi:guide
       position="1546.2462,191.67202"
       orientation="1,0"
       id="guide1146"
       inkscape:locked="false" />
    <sodipodi:guide
       position="35.598908,28.333824"
       orientation="0,1"
       id="guide1013"
       inkscape:locked="false" />
  </sodipodi:namedview>
  <rect
     style="fill:none;stroke:none;stroke-width:1.05699372"
     x="-63.727894"
     y="-64.742355"
     width="0"
     height="0"
     pointer-events="all"
     id="rect892" />
  <rect
     style="fill:none;stroke:none;stroke-width:1.05699372"
     x="-63.727894"
     y="-64.742355"
     width="0"
     height="0"
     pointer-events="all"
     id="rect898" />
  <rect
     style="fill:none;stroke:none;stroke-width:1.05699372"
     x="-63.727894"
     y="-64.742355"
     width="0"
     height="0"
     pointer-events="all"
     id="rect904" />
  <g
     id="g1839">
    <circle
       transform="rotate(179.99056)"
       style="opacity:1;fill:#5fbcd3;fill-opacity:1;fill-rule:nonzero;stroke:none;stroke-width:8.72459221;stroke-linecap:butt;stroke-linejoin:miter;stroke-miterlimit:4;stroke-dasharray:none;stroke-opacity:1"
       id="circle865"
       cx="-119.97649"
       cy="-149.41512"
       r="82.723991" />
    <g
       transform="matrix(-0.76946053,1.2677561e-4,-1.2677561e-4,-0.76946053,212.35155,241.71542)"
       style="opacity:0.2"
       id="g2387">
      <circle
         style="opacity:1;fill:none;fill-opacity:1;fill-rule:nonzero;stroke:#ffffff;stroke-width:4;stroke-linecap:round;stroke-linejoin:round;stroke-miterlimit:4;stroke-dasharray:none;stroke-opacity:1"
         id="path1655"
         cx="154.6313"
         cy="137.63843"
         r="16.334293" />
      <circle
         r="16.334293"
         cy="170.30701"
         cx="173.14351"
         id="circle1689"
         style="opacity:1;fill:none;fill-opacity:1;fill-rule:nonzero;stroke:#ffffff;stroke-width:4;stroke-linecap:round;stroke-linejoin:round;stroke-miterlimit:4;stroke-dasharray:none;stroke-opacity:1"
         transform="matrix(0.45238095,0,0,0.45238095,99.172495,94.352314)" />
      <circle
         transform="matrix(0.67857143,0,0,0.67857143,34.963165,78.045135)"
         style="opacity:1;fill:none;fill-opacity:1;fill-rule:nonzero;stroke:#ffffff;stroke-width:4;stroke-linecap:round;stroke-linejoin:round;stroke-miterlimit:4;stroke-dasharray:none;stroke-opacity:1"
         id="circle1691"
         cx="173.14351"
         cy="170.30701"
         r="16.334293" />
      <circle
         r="16.334293"
         cy="170.30701"
         cx="173.14351"
         id="circle1693"
         style="opacity:1;fill:none;fill-opacity:1;fill-rule:nonzero;stroke:#ffffff;stroke-width:4;stroke-linecap:round;stroke-linejoin:round;stroke-miterlimit:4;stroke-dasharray:none;stroke-opacity:1"
         transform="matrix(0.67857143,0,0,0.67857143,-50.846324,30.566789)" />
      <circle
         transform="matrix(1.1547619,0,0,1.1547619,-138.74038,-15.031921)"
         style="opacity:1;fill:none;fill-opacity:1;fill-rule:nonzero;stroke:#ffffff;stroke-width:4;stroke-linecap:round;stroke-linejoin:round;stroke-miterlimit:4;stroke-dasharray:none;stroke-opacity:1"
         id="circle1695"
         cx="173.14351"
         cy="170.30701"
         r="16.334293" />
      <circle
         r="16.334293"
         cy="170.30701"
         cx="173.14351"
         id="circle1697"
         style="opacity:1;fill:none;fill-opacity:1;fill-rule:nonzero;stroke:#ffffff;stroke-width:4;stroke-linecap:round;stroke-linejoin:round;stroke-miterlimit:4;stroke-dasharray:none;stroke-opacity:1"
         transform="matrix(0.23809523,0,0,0.23809523,-7.2493166,104.49402)" />
      <circle
         transform="matrix(0.23809523,0,0,0.23809523,119.28701,171.57352)"
         style="opacity:1;fill:none;fill-opacity:1;fill-rule:nonzero;stroke:#ffffff;stroke-width:4;stroke-linecap:round;stroke-linejoin:round;stroke-miterlimit:4;stroke-dasharray:none;stroke-opacity:1"
         id="circle1699"
         cx="173.14351"
         cy="170.30701"
         r="16.334293" />
      <circle
         r="16.334293"
         cy="170.30701"
         cx="173.14351"
         id="circle1701"
         style="opacity:1;fill:none;fill-opacity:1;fill-rule:nonzero;stroke:#ffffff;stroke-width:4;stroke-linecap:round;stroke-linejoin:round;stroke-miterlimit:4;stroke-dasharray:none;stroke-opacity:1"
         transform="matrix(0.23809523,0,0,0.23809523,37.615542,165.47539)" />
      <circle
         transform="matrix(0.23809523,0,0,0.23809523,179.83279,104.27623)"
         style="opacity:1;fill:none;fill-opacity:1;fill-rule:nonzero;stroke:#ffffff;stroke-width:4;stroke-linecap:round;stroke-linejoin:round;stroke-miterlimit:4;stroke-dasharray:none;stroke-opacity:1"
         id="circle1703"
         cx="173.14351"
         cy="170.30701"
         r="16.334293" />
      <circle
         r="16.334293"
         cy="170.30701"
         cx="173.14351"
         id="circle1705"
         style="opacity:1;fill:none;fill-opacity:1;fill-rule:nonzero;stroke:#ffffff;stroke-width:4;stroke-linecap:round;stroke-linejoin:round;stroke-miterlimit:4;stroke-dasharray:none;stroke-opacity:1"
         transform="matrix(0.23809523,0,0,0.23809523,134.75014,111.24553)" />
      <circle
         r="16.334293"
         cy="170.30701"
         cx="173.14351"
         id="circle1707"
         style="opacity:1;fill:none;fill-opacity:1;fill-rule:nonzero;stroke:#ffffff;stroke-width:4;stroke-linecap:round;stroke-linejoin:round;stroke-miterlimit:4;stroke-dasharray:none;stroke-opacity:1"
         transform="matrix(0.47023809,0,0,0.47023809,8.4199384,48.079692)" />
      <circle
         transform="matrix(0.47023809,0,0,0.47023809,65.48107,89.024321)"
         style="opacity:1;fill:none;fill-opacity:1;fill-rule:nonzero;stroke:#ffffff;stroke-width:4;stroke-linecap:round;stroke-linejoin:round;stroke-miterlimit:4;stroke-dasharray:none;stroke-opacity:1"
         id="circle1709"
         cx="173.14351"
         cy="170.30701"
         r="16.334293" />
    </g>
  </g>
  <g
     id="g1019"
     transform="translate(3.7743458e-6,1.6582701)">
    <path
       transform="matrix(-0.76946053,1.2677561e-4,-1.2677561e-4,-0.76946053,212.35155,240.05715)"
       sodipodi:nodetypes="ccc"
       inkscape:connector-curvature="0"
       id="path884"
       d="M 13.844162,137.00411 120,120 226.15584,137.00411"
       style="fill:none;stroke:#000000;stroke-width:1.88976383;stroke-linecap:butt;stroke-linejoin:miter;stroke-miterlimit:4;stroke-dasharray:none;stroke-opacity:1;filter:url(#filter902)" />
    <path
       transform="rotate(179.99056)"
       d="m -201.65948,-134.67286 a 82.723991,82.723991 0 0 1 41.06304,-85.14855 l 40.61969,72.06456 z"
       sodipodi:end="4.1991211"
       sodipodi:start="2.9827613"
       sodipodi:ry="82.723991"
       sodipodi:rx="82.723991"
       sodipodi:cy="-147.75685"
       sodipodi:cx="-119.97675"
       sodipodi:type="arc"
       style="opacity:1;fill:#aa0018;fill-opacity:1;fill-rule:nonzero;stroke:none;stroke-width:8.72459221;stroke-linecap:butt;stroke-linejoin:miter;stroke-miterlimit:4;stroke-dasharray:none;stroke-opacity:1"
       id="circle1180" />
    <path
       transform="matrix(0.99999999,-1.6475794e-4,-1.6475794e-4,-0.99999999,0,0)"
       id="path1184"
       style="opacity:1;fill:#780018;fill-opacity:1;fill-rule:nonzero;stroke:none;stroke-width:8.72459221;stroke-linecap:butt;stroke-linejoin:miter;stroke-miterlimit:4;stroke-dasharray:none;stroke-opacity:1"
       sodipodi:type="arc"
       sodipodi:cx="119.97675"
       sodipodi:cy="-147.75685"
       sodipodi:rx="82.723991"
       sodipodi:ry="82.723991"
       sodipodi:start="2.9827613"
       sodipodi:end="4.1991211"
       d="m 38.294026,-134.67286 a 82.723991,82.723991 0 0 1 41.063042,-85.14855 l 40.619682,72.06456 z" />
    <path
       d="m 68.456735,-212.47892 a 82.723991,82.723991 0 0 1 102.797025,-0.1927 l -51.27701,64.91477 z"
       sodipodi:end="5.3809489"
       sodipodi:start="4.04008"
       sodipodi:ry="82.723991"
       sodipodi:rx="82.723991"
       sodipodi:cy="-147.75685"
       sodipodi:cx="119.97675"
       sodipodi:type="arc"
       transform="matrix(0.99999999,-1.6475794e-4,-1.6475794e-4,-0.99999999,0,0)"
       style="opacity:1;fill:#960018;fill-opacity:1;fill-rule:nonzero;stroke:none;stroke-width:8.72459221;stroke-linecap:butt;stroke-linejoin:miter;stroke-miterlimit:4;stroke-dasharray:none;stroke-opacity:1"
       id="circle1182" />
  </g>
  <circle
     r="82.723991"
     cy="-149.41512"
     cx="-119.97649"
     id="circle882"
     style="opacity:1;fill:none;fill-opacity:1;fill-rule:nonzero;stroke:#000004;stroke-width:3.07784224;stroke-linecap:butt;stroke-linejoin:miter;stroke-miterlimit:4;stroke-dasharray:none;stroke-opacity:1"
     transform="rotate(179.99056)" />
  <path
     style="fill:#000000;fill-opacity:1;stroke:none;stroke-width:2.03573799;stroke-miterlimit:4;stroke-dasharray:none;stroke-opacity:1"
     inkscape:connector-curvature="0"
     d="m 58.793658,173.45052 c -0.688146,-1.6185 45.485402,-24.48972 56.810202,-29.98256 11.31118,-4.1374 16.8101,9.69113 5.45053,13.73601 -11.61666,3.41952 -61.572584,17.86506 -62.260732,16.24655 z"
     pointer-events="all"
     id="path908"
     sodipodi:nodetypes="zccz"
     inkscape:transform-center-x="26.836713"
     inkscape:transform-center-y="8.3440376" />
  <circle
     style="opacity:1;fill:#960018;fill-opacity:1;fill-rule:nonzero;stroke:none;stroke-width:3.42180347;stroke-linecap:butt;stroke-linejoin:miter;stroke-miterlimit:4;stroke-dasharray:none;stroke-opacity:1"
     id="path863"
     cx="-119.97649"
     cy="-149.41512"
     r="4.4138393"
     transform="rotate(179.99056)" />
  <g
     id="g1064"
     transform="translate(0,1.6582701)">
    <g
       transform="translate(-1.1277794,2.5764131)"
       id="g1033">
      <path
         style="fill:#ffffff;fill-opacity:1;stroke:none;stroke-width:2;stroke-miterlimit:4;stroke-dasharray:none;stroke-opacity:1;filter:url(#filter1637)"
         d="m 126.40817,207.4604 c 0.0103,-5.47178 0.16827,-9.06426 0.39617,-9.01046 0.52799,0.12464 2.21405,2.75666 2.67947,4.18275 0.21247,0.65103 0.35961,1.82849 0.32696,2.61657 -0.0326,0.78808 -0.0846,1.96389 -0.11533,2.61292 -0.0664,1.39897 0.57504,2.15963 1.96066,2.32513 1.39474,0.16659 2.2941,-0.81842 2.71563,-2.97428 0.18268,-0.93433 0.22788,-2.44605 0.10045,-3.35937 -0.22467,-1.61032 -0.0198,-2.61364 0.43991,-2.15396 0.40366,0.40366 3.43708,0.39922 5.00355,-0.008 1.43309,-0.37192 1.72395,-0.58168 4.57895,-3.30208 2.85873,-2.72395 3.04866,-2.95972 3.04866,-3.78454 0,-1.44287 -1.7577,-2.79881 -2.9995,-2.3139 -0.29572,0.11545 -1.69965,1.2584 -3.11987,2.5399 -2.34762,2.11827 -2.68131,2.33397 -3.67255,2.37386 -1.79808,0.0723 -2.7903,-0.50302 -5.44463,-3.15734 -1.33356,-1.33357 -2.34151,-2.50778 -2.2399,-2.6094 0.10161,-0.10161 0.59386,-0.0153 1.0939,0.19184 1.35088,0.55956 4.30598,0.50199 6.23671,-0.12147 2.44145,-0.78837 4.93456,-3.04885 6.03312,-5.47012 0.69283,-1.52699 0.7944,-2.56838 0.8453,-8.66539 l 0.0579,-6.92982 2.32894,-2.32894 c 2.15647,-2.15646 2.33504,-2.40991 2.41113,-3.42232 0.0799,-1.0626 0.0149,-1.16509 -2.3093,-3.64168 -4.31161,-4.59431 -5.01235,-4.60468 -9.23656,-0.13674 -2.48169,2.62486 -2.5296,2.69868 -2.44866,3.7745 0.0762,1.01289 0.25659,1.27132 2.34505,3.35977 l 2.26251,2.26251 -0.0406,6.6074 c -0.0274,4.46234 -0.19623,6.85316 -0.52007,7.36437 -0.26376,0.41632 -0.59705,0.96129 -0.74067,1.21104 -0.48432,0.84218 -2.44217,1.71516 -4.02688,1.79556 -3.79976,0.19277 -6.59818,-3.63623 -4.32145,-5.91296 0.67105,-0.67105 0.76237,-1.15554 0.76237,-4.04399 0,-2.28342 -0.16741,-3.53273 -0.55035,-4.10716 -0.39259,-0.58887 -0.46542,-1.20124 -0.25408,-2.13619 0.17503,-0.77438 0.0728,-2.42275 -0.24984,-4.02841 -0.30036,-1.49475 -0.51627,-2.98407 -0.47983,-3.3096 0.0473,-0.42321 1.12459,-1.65022 3.77953,-4.30516 3.50429,-3.50429 3.72616,-3.7795 3.94253,-4.89009 0.46488,-2.38638 0.44911,-2.40866 -7.10182,-10.03236 -3.74025,-3.77628 -7.06549,-7.11469 -7.3895,-7.41866 -0.6191,-0.58081 -2.92827,-0.88204 -4.0826,-0.53252 -0.46398,0.14048 -2.90489,2.4639 -7.88778,7.50811 -8.01156,8.11015 -7.98175,8.0686 -7.51285,10.47542 0.21635,1.1106 0.43822,1.38581 3.94252,4.89011 2.65494,2.65494 3.73215,3.88196 3.77951,4.30515 0.0364,0.32553 -0.17948,1.81486 -0.47982,3.3096 -0.32264,1.60569 -0.42488,3.25403 -0.24984,4.02841 0.21133,0.93496 0.13849,1.54732 -0.25408,2.13622 -0.38296,0.5744 -0.55035,1.82373 -0.55037,4.10712 2e-5,2.88848 0.0914,3.37295 0.76241,4.04401 2.27672,2.27672 -0.52171,6.10572 -4.32148,5.91296 -2.34283,-0.11885 -3.6106,-0.96222 -4.93601,-3.28368 -0.16811,-0.29444 -0.32513,-3.49621 -0.34893,-7.11503 l -0.0433,-6.57968 2.26249,-2.26249 c 2.08628,-2.08628 2.26892,-2.34761 2.34469,-3.35585 0.0799,-1.0626 0.0149,-1.16509 -2.3093,-3.64167 -4.311599,-4.59432 -5.012367,-4.6047 -9.236578,-0.13677 -2.481687,2.62487 -2.529572,2.6987 -2.448641,3.77453 0.0765,1.01708 0.252814,1.26752 2.411515,3.42623 l 2.328945,2.32894 0.05787,6.92982 c 0.05087,6.09701 0.152481,7.13839 0.845292,8.66538 1.098567,2.42127 3.591697,4.68175 6.033127,5.47012 1.93075,0.62348 4.88587,0.68104 6.23673,0.12147 0.50003,-0.20711 0.99229,-0.29345 1.0939,-0.19184 0.10162,0.10162 -0.90635,1.27585 -2.2399,2.60942 -2.65434,2.65433 -3.64655,3.2297 -5.44465,3.15735 -0.99486,-0.04 -1.31536,-0.24875 -3.661836,-2.38457 -2.586445,-2.35427 -3.570165,-2.91562 -4.434674,-2.53061 -0.937444,0.4175 -1.695401,1.4526 -1.695393,2.31531 0,0.82481 0.189914,1.06057 3.04866,3.78454 2.854998,2.72038 3.145854,2.93014 4.578933,3.30208 1.56648,0.40656 4.5999,0.411 5.00358,0.008 0.45967,-0.45968 0.66458,0.54364 0.43988,2.15396 -0.12741,0.91333 -0.0822,2.42505 0.10046,3.35936 0.42154,2.15588 1.32088,3.14089 2.71563,2.97431 1.38562,-0.16553 2.02705,-0.92616 1.96066,-2.32516 -0.0308,-0.649 -0.0827,-1.82481 -0.11534,-2.6129 -0.0326,-0.78808 0.11449,-1.96554 0.32697,-2.61657 0.46542,-1.4261 2.1515,-4.05811 2.67945,-4.18275 0.22792,-0.0538 0.38586,3.53866 0.39618,9.01047 0.0167,8.84569 0.0409,9.1237 0.86722,9.95 1.05585,1.05585 2.19069,1.06949 3.22151,0.0387 0.66883,-0.66883 0.73094,-1.47234 0.74712,-9.66182 0.0103,-5.24094 0.17993,-9.09464 0.41039,-9.3251 0.53777,-0.53778 1.76611,-0.55741 2.28699,-0.0366 0.27802,0.27802 0.43552,3.5771 0.44693,9.36163 0.0162,8.1895 0.0783,8.99297 0.74711,9.66181 1.03082,1.03081 2.16566,1.0172 3.22151,-0.0386 0.82631,-0.82631 0.85053,-1.10431 0.86719,-9.95002 z"
         id="path1567"
         inkscape:connector-curvature="0"
         sodipodi:nodetypes="cccccscssscscccsssccccscsscscccccscscscsccccccscccccsscscscsscscscccsscsscscsccccscccsscsscssc"
         transform="matrix(1.5419484,0,0,1.5419484,-63.905389,-199.18448)" />
      <path
         sodipodi:nodetypes="cccccscssscscccsssccccscsscscccccscscscsccccccscccccsscscscsscscscccsscsscscsccccscccsscsscssc"
         inkscape:connector-curvature="0"
         id="path1555"
         d="m 131.00874,120.71403 c 0.0158,-8.4372 0.25945,-13.97662 0.61087,-13.89367 0.81413,0.1922 3.41394,4.25063 4.1316,6.44959 0.32761,1.00385 0.55449,2.81944 0.50415,4.03462 -0.0502,1.21517 -0.13037,3.02821 -0.17783,4.02898 -0.10238,2.15714 0.88668,3.33004 3.02325,3.58523 2.15061,0.25688 3.53738,-1.26195 4.18735,-4.58618 0.28169,-1.44069 0.35138,-3.77169 0.15488,-5.17997 -0.34642,-2.48303 -0.0305,-4.03011 0.67833,-3.3213 0.62242,0.62242 5.29979,0.61558 7.71521,-0.0117 2.20976,-0.57349 2.65825,-0.89693 7.06051,-5.09163 4.40802,-4.2002 4.70087,-4.56374 4.70087,-5.83557 0,-2.224834 -2.71027,-4.315623 -4.62507,-3.567924 -0.45599,0.17803 -2.62078,1.9404 -4.81067,3.916394 -3.61992,3.26626 -4.13444,3.59887 -5.66289,3.66038 -2.77254,0.11147 -4.30249,-0.77563 -8.39534,-4.86846 -2.05628,-2.056294 -3.61048,-3.86687 -3.45381,-4.023558 0.15669,-0.156674 0.91571,-0.02358 1.68674,0.295813 2.08298,0.862802 6.63959,0.774036 9.61668,-0.187302 3.7646,-1.215625 7.60883,-4.701182 9.30277,-8.434654 1.0683,-2.354538 1.22491,-3.960308 1.30339,-13.361572 l 0.0894,-10.685427 3.59109,-3.591109 c 3.32516,-3.325149 3.60051,-3.715953 3.71784,-5.277032 0.12319,-1.638479 0.023,-1.796515 -3.56081,-5.615295 -6.64829,-7.084181 -7.72879,-7.100177 -14.24231,-0.210841 -3.82663,4.047404 -3.90051,4.161232 -3.7757,5.820086 0.11748,1.561826 0.39564,1.960306 3.61594,5.180591 l 3.48867,3.488677 -0.0625,10.188264 c -0.0422,6.880693 -0.30258,10.567218 -0.80193,11.355477 -0.40669,0.641942 -0.92061,1.482259 -1.14206,1.867366 -0.74681,1.29859 -3.76571,2.644683 -6.20925,2.768662 -5.85904,0.297234 -10.17406,-5.606887 -6.66345,-9.117477 1.03472,-1.034724 1.17553,-1.781793 1.17553,-6.235631 0,-3.520917 -0.25814,-5.447284 -0.84861,-6.333025 -0.60535,-0.908005 -0.71765,-1.852249 -0.39177,-3.29389 0.26989,-1.194063 0.11221,-3.735757 -0.38525,-6.211609 -0.46314,-2.304823 -0.79605,-4.601283 -0.73986,-5.103235 0.0729,-0.652562 1.73405,-2.54455 5.82783,-6.63833 5.40343,-5.403428 5.74555,-5.827791 6.07918,-7.54027 0.71682,-3.679671 0.69251,-3.71402 -10.95064,-15.469369 -5.76727,-5.82284 -10.89461,-10.970488 -11.39422,-11.43919 -0.95463,-0.895583 -4.51524,-1.360067 -6.29516,-0.821128 -0.71543,0.216612 -4.47919,3.799211 -12.16256,11.577113 -12.353406,12.505436 -12.307441,12.441367 -11.584423,16.152559 0.333604,1.712494 0.675719,2.136857 6.079163,7.5403 4.09378,4.093779 5.75479,5.985783 5.82781,6.638315 0.0561,0.501952 -0.27675,2.798427 -0.73985,5.103235 -0.4975,2.475896 -0.65514,5.017546 -0.38524,6.211609 0.32586,1.441656 0.21354,2.385885 -0.39179,3.293934 -0.5905,0.885697 -0.8486,2.812093 -0.84863,6.332966 3e-5,4.453882 0.14091,5.200922 1.17559,6.235661 3.51059,3.510575 -0.80445,9.414696 -6.663497,9.117477 -3.612524,-0.183259 -5.567367,-1.483695 -7.611074,-5.063262 -0.259208,-0.454024 -0.501322,-5.390978 -0.53803,-10.971015 l -0.06679,-10.145522 3.488643,-3.488648 c 3.216931,-3.21693 3.49855,-3.619892 3.615381,-5.174541 0.123189,-1.638478 0.023,-1.796514 -3.560817,-5.615265 -6.648257,-7.084211 -7.728805,-7.100221 -14.24232,-0.2109 -3.826632,4.047419 -3.900469,4.161262 -3.775678,5.82013 0.117959,1.568286 0.389827,1.954447 3.718433,5.283067 l 3.591112,3.59111 0.08923,10.685426 c 0.07844,9.401265 0.235119,11.00702 1.303398,13.361558 1.693934,3.733472 5.538205,7.219029 9.302769,8.434654 2.977116,0.961367 7.53375,1.050118 9.61671,0.187302 0.77101,-0.319367 1.53007,-0.452487 1.68674,-0.295813 0.15669,0.156688 -1.39755,1.967293 -3.45382,4.023588 -4.092853,4.09284 -5.622791,4.98003 -8.395364,4.86847 -1.534025,-0.0617 -2.02821,-0.38355 -5.646353,-3.67688 -3.988166,-3.630164 -5.50501,-4.495735 -6.838038,-3.902072 -1.445491,0.643758 -2.614222,2.239831 -2.614208,3.570092 0,1.27181 0.292836,1.63534 4.700875,5.83557 4.40226,4.19467 4.850745,4.51811 7.060481,5.09163 2.415425,0.6269 7.092803,0.63374 7.715249,0.0117 0.708794,-0.70881 1.024748,0.83827 0.678268,3.3213 -0.196457,1.4083 -0.126704,3.7393 0.154916,5.17996 0.649983,3.32425 2.036724,4.84309 4.187354,4.58622 2.13656,-0.25524 3.12561,-1.42809 3.02324,-3.58528 -0.0475,-1.00071 -0.12759,-2.81376 -0.17786,-4.02895 -0.0502,-1.21518 0.17655,-3.03075 0.50418,-4.03461 0.71766,-2.19898 3.3175,-6.2574 4.13157,-6.44959 0.35145,-0.0829 0.59498,5.45643 0.61089,13.89368 0.0258,13.6396 0.0631,14.06827 1.33722,15.34239 1.62806,1.62806 3.37792,1.64909 4.96739,0.0596 1.03131,-1.03129 1.12708,-2.27027 1.15202,-14.89803 0.0158,-8.08126 0.27745,-14.02346 0.6328,-14.37882 0.82922,-0.82923 2.72326,-0.85949 3.52643,-0.0564 0.42868,0.4287 0.67154,5.5157 0.68914,14.43516 0.0249,12.62777 0.12069,13.86668 1.15201,14.898 1.58946,1.58946 3.33932,1.56847 4.9674,-0.0595 1.27411,-1.27412 1.31147,-1.70278 1.33716,-15.34241 z"
         style="fill:#d10047;fill-opacity:1;stroke:#000000;stroke-width:2.92956877;stroke-miterlimit:4;stroke-dasharray:none;stroke-opacity:1" />
      <circle
         style="opacity:1;fill:#ffffff;fill-opacity:1;fill-rule:nonzero;stroke:#000000;stroke-width:2.92956877;stroke-linecap:round;stroke-linejoin:round;stroke-miterlimit:4;stroke-dasharray:none;stroke-opacity:1"
         id="path1651"
         cx="112.73536"
         cy="74.835609"
         r="3.6686869" />
      <circle
         r="3.6686869"
         cy="74.835609"
         cx="129.8454"
         id="circle1653"
         style="opacity:1;fill:#ffffff;fill-opacity:1;fill-rule:nonzero;stroke:#000000;stroke-width:2.92956877;stroke-linecap:round;stroke-linejoin:round;stroke-miterlimit:4;stroke-dasharray:none;stroke-opacity:1" />
    </g>
  </g>
</svg>
